<svg width="56" height="56" viewBox="0 0 56 56" fill="none" xmlns="http://www.w3.org/2000/svg">
<path d="M53.9136 29.5775V40.4285C53.9136 42.0144 53.2714 43.4518 52.2316 44.4916C51.1918 45.53 49.7559 46.1736 48.1685 46.1736V29.5775H53.9136Z" fill="#4D908E"/>
<path d="M7.55322 29.5775V46.1736C5.96732 46.1736 4.5299 45.5299 3.4901 44.4916C2.4517 43.4518 1.80811 42.0144 1.80811 40.4285V29.5775H7.55322Z" fill="#537E7D"/>
<path d="M55.7215 27.0946V29.5776H52.5293H46.7842V24.0713H52.6968C54.3671 24.0713 55.7215 25.4242 55.7215 27.0946Z" fill="#F9C74F"/>
<path d="M8.9359 24.0713V29.5776H3.19067H0V27.0946C0 25.4242 1.35434 24.0713 3.02473 24.0713H8.9359Z" fill="#E09B2D"/>
<path d="M45.1551 0.346954C46.097 0.346954 46.8607 1.13073 46.8607 2.09748V19.756C46.8607 27.3482 36.3979 17.7697 40.7223 11.0166V2.09748C40.7223 1.13073 41.486 0.346954 42.4279 0.346954H45.1551Z" fill="#F9C74F"/>
<path d="M13.2936 0.346954C14.2356 0.346954 14.9992 1.13073 14.9992 2.09748V11.0152V11.0165C13.1892 29.9532 8.86084 25.4358 8.86084 19.7559V2.09748C8.86084 1.13073 9.62452 0.346954 10.5665 0.346954H13.2936Z" fill="#F9C74F"/>
<path d="M35.2492 10.0222H20.4721C19.8689 10.0222 19.3799 9.53321 19.3799 8.93004V4.10871C19.3799 1.84313 21.2231 0 23.4887 0H32.2329C34.4985 0 36.3416 1.84313 36.3416 4.10871V8.92992C36.3415 9.53321 35.8525 10.0222 35.2492 10.0222ZM21.5643 7.83774H34.157V4.10871C34.157 3.0477 33.2938 2.18449 32.2328 2.18449H23.4886C22.4276 2.18449 21.5643 3.04781 21.5643 4.10871V7.83774Z" fill="#4D908E"/>
<path d="M48.605 46.1736V51.2212C48.605 53.5004 46.7584 55.347 44.4807 55.347H11.2419C8.96273 55.347 7.11621 53.5003 7.11621 51.2212V46.1736V29.5775V24.0713V15.9946C7.11621 11.665 9.92402 7.9922 13.8182 6.69751V6.69611C14.7909 6.37279 15.8307 6.19806 16.9128 6.19806H20.4721H35.2493H38.8085C39.8905 6.19806 40.9303 6.37279 41.9032 6.69763C45.7973 7.99372 48.6051 11.6666 48.6051 15.9947V24.0714V29.5777L48.605 46.1736Z" fill="#F3722C"/>
<path d="M16.9128 6.19794C15.8309 6.19794 14.7911 6.37266 13.8182 6.69598V6.69739C9.92402 7.99208 7.11621 11.6649 7.11621 15.9945V51.2211C7.11621 53.5003 8.96285 55.3468 11.2419 55.3468H17.2127C14.9336 55.3468 13.087 53.5002 13.087 51.2211V15.9946C13.087 11.665 15.8948 7.99219 19.789 6.69751V6.6961C20.7618 6.37278 21.8016 6.19805 22.8837 6.19805H16.9128V6.19794Z" fill="#E54728"/>
<path d="M37.7059 30.4528V43.0979C37.7059 45.6334 35.651 47.6882 33.117 47.6882H20.2753C17.7398 47.6882 15.6851 45.6333 15.6851 43.0979V30.4528H37.7059Z" fill="#E54728"/>
<path d="M38.8714 30.4528V43.0979C38.8714 45.6334 36.8165 47.6882 34.2826 47.6882H21.4408C18.9054 47.6882 16.8506 45.6333 16.8506 43.0979V30.4528H38.8714Z" fill="#4D908E"/>
<path d="M21.0739 43.0979V30.4528H16.8506V43.0979C16.8506 45.6334 18.9055 47.6882 21.4408 47.6882H25.6641C23.1288 47.6882 21.0739 45.6334 21.0739 43.0979Z" fill="#537E7D"/>
<path d="M38.8724 30.4528H16.8516V32.7829H38.8724V30.4528Z" fill="#537E7D"/>
<path d="M32.6002 15.3742L27.8613 20.113L23.1211 15.3742L27.8613 10.6353L32.6002 15.3742Z" fill="#F7B239"/>
<path d="M29.5852 30.4528H25.1172V40.6659H29.5852V30.4528Z" fill="#2197D8"/>
<path d="M30.095 30.4528H25.627V40.6659H30.095V30.4528Z" fill="#F95428"/>
<path d="M30.095 30.4528H25.627V31.794H30.095V30.4528Z" fill="#E54728"/>
<path d="M41.5844 29.7226V31.3289H38.8713H30.0956H25.6276H16.8503H14.1372V29.7226C14.1372 27.0852 16.2751 24.9473 18.9125 24.9473H36.8091C39.4464 24.9473 41.5844 27.0852 41.5844 29.7226Z" fill="#F9C74F"/>
<path d="M25.4658 24.9473H18.9125C16.2751 24.9473 14.1372 27.0851 14.1372 29.7225V31.3288H16.8503H20.6906V29.7225C20.6907 27.0851 22.8285 24.9473 25.4658 24.9473Z" fill="#E09B2D"/>
<path d="M29.4994 13.845H28.48V16.9032H29.4994V13.845Z" fill="#4D908E"/>
</svg>
