<svg width="39" height="39" viewBox="0 0 39 39" fill="none" xmlns="http://www.w3.org/2000/svg">
<g clip-path="url(#clip0_104_36)">
<path d="M9.75385 28.0637C9.48189 28.1631 9.23731 28.2967 9.03676 28.474C7.64395 29.7071 4.40426 34.9257 6.2669 36.0183C7.95994 37.0109 8.83295 32.4912 10.8503 31.5834C11.5082 31.2873 12.2878 31.2257 13.0516 31.2817C11.7156 30.4164 10.5968 29.3066 9.75385 28.0637V28.0637Z" fill="#FF9838"/>
<path d="M8.04746 23.5793C7.01408 23.3957 5.80128 23.346 5.04432 23.8676C3.51285 24.9233 -0.33354 29.7126 1.3839 31.0221C2.94453 32.212 4.35699 27.8307 6.46927 27.1731C7.33602 26.9032 8.34976 27.0252 9.26561 27.2751C8.60893 26.1049 8.18849 24.8454 8.04746 23.5793V23.5793Z" fill="#FF9838"/>
<path d="M9.0451 18.7308C9.17543 18.5104 9.31498 18.3003 9.46256 18.0994C9.46256 18.0994 9.46226 18.0994 9.46226 18.0991C9.46226 18.0991 6.17288 16.5567 4.56435 17.491C2.95581 18.425 -1.24971 22.9021 0.361204 24.3405C1.82513 25.6479 3.57233 21.3888 5.72924 20.8967C6.49572 20.7217 7.34909 20.8488 8.14443 21.0937C8.30659 20.2769 8.60205 19.4815 9.0451 18.7308Z" fill="#FF9838"/>
<path d="M29.2461 28.0637C29.5181 28.1631 29.7627 28.2967 29.9632 28.474C31.356 29.7071 34.596 34.9257 32.7331 36.0183C31.0401 37.0109 30.167 32.4912 28.1497 31.5834C27.4918 31.2873 26.7125 31.2257 25.9487 31.2817C27.2844 30.4164 28.4032 29.3066 29.2461 28.0637V28.0637Z" fill="#FF9838"/>
<path d="M30.9525 23.5793C31.9859 23.3957 33.1987 23.346 33.9557 23.8676C35.4871 24.9233 39.3335 29.7126 37.6161 31.0221C36.0555 32.212 34.643 27.8307 32.5307 27.1731C31.664 26.9032 30.6502 27.0252 29.7344 27.2751C30.3911 26.1049 30.8112 24.8454 30.9525 23.5793V23.5793Z" fill="#FF9838"/>
<path d="M29.9549 18.7308C29.8246 18.5104 29.6848 18.3003 29.5375 18.0994C29.5375 18.0994 29.5378 18.0994 29.5378 18.0991C29.5378 18.0991 32.8272 16.5567 34.4357 17.491C36.0442 18.425 40.2497 22.9021 38.6388 24.3405C37.1749 25.6479 35.4277 21.3888 33.2708 20.8967C32.5043 20.7217 31.6509 20.8488 30.8556 21.0937C30.6934 20.2769 30.398 19.4815 29.9549 18.7308V18.7308Z" fill="#FF9838"/>
<path d="M10.2192 12.5698C10.0145 12.7555 9.79935 12.9141 9.58422 13.0486C9.07958 13.3643 8.51871 13.5851 7.93076 13.6779C7.80489 13.6975 7.67606 13.7124 7.54395 13.721L9.46223 18.0994H9.46253C10.0987 17.2342 10.886 16.5483 11.7382 16.0047L10.2192 12.5698Z" fill="#FF9838"/>
<path d="M28.7811 12.5698C28.9861 12.7555 29.201 12.9141 29.4164 13.0486C29.921 13.3643 30.4819 13.5851 31.0699 13.6779C31.1954 13.6975 31.3246 13.7124 31.4564 13.721L29.5384 18.0994C29.5381 18.0994 29.5381 18.0994 29.5378 18.0994C28.9016 17.2342 28.1143 16.5483 27.2625 16.0047L28.7811 12.5698Z" fill="#FF9838"/>
<path d="M7.93077 13.678C8.51872 13.5852 9.07959 13.3644 9.58423 13.0487C10.4102 12.5322 11.2353 11.6773 11.4722 10.2027C11.975 7.07279 9.21319 2.53282 7.83823 3.00473C6.82598 3.35256 7.49813 5.01109 7.23629 6.19592C7.03843 7.09094 5.97291 7.48578 5.23946 6.93621C4.26827 6.20871 3.69668 4.51299 2.70258 4.90933C1.35201 5.44789 2.21847 10.691 4.6405 12.7363C5.76165 13.6828 6.94916 13.8325 7.93077 13.678Z" fill="#FFAA5C"/>
<path d="M9.58427 10.9285C9.07963 11.2442 8.51875 11.465 7.9308 11.5579C6.9492 11.7126 5.76169 11.5626 4.64053 10.6161C3.31258 9.49467 2.45237 7.41244 2.16881 5.6709C1.73737 7.32377 2.67821 11.0791 4.64053 12.7361C5.76169 13.6826 6.9492 13.8323 7.9308 13.6776C8.51875 13.585 9.07963 13.3643 9.58427 13.0486C10.4103 12.532 11.2354 11.6772 11.4722 10.2025C11.5686 9.60119 11.5445 8.94778 11.4332 8.28782C11.1553 9.6366 10.3707 10.4367 9.58427 10.9285Z" fill="#FF9838"/>
<path d="M31.0698 13.678C30.4818 13.5852 29.9209 13.3644 29.4163 13.0487C28.5903 12.5322 27.7652 11.6773 27.5284 10.2027C27.0252 7.07279 29.7871 2.53282 31.1623 3.00473C32.1746 3.35256 31.5021 5.01109 31.764 6.19592C31.9621 7.09094 33.0273 7.48578 33.7611 6.93621C34.732 6.20871 35.3036 4.51299 36.298 4.90933C37.6482 5.44818 36.7818 10.691 34.3597 12.7363C33.2389 13.6828 32.0514 13.8325 31.0698 13.678Z" fill="#FFAA5C"/>
<path d="M34.3598 10.6161C33.2389 11.5626 32.0514 11.7125 31.0698 11.5578C30.4819 11.465 29.921 11.2442 29.4163 10.9285C28.6296 10.4366 27.845 9.63655 27.5674 8.28806C27.4558 8.94773 27.4317 9.60114 27.5284 10.2025C27.7653 11.6771 28.5904 12.532 29.4163 13.0485C29.921 13.3642 30.4819 13.585 31.0698 13.6778C32.0514 13.8325 33.2389 13.6826 34.3598 12.7361C36.3221 11.0791 37.2629 7.32372 36.8318 5.67114C36.5479 7.41239 35.6877 9.49462 34.3598 10.6161V10.6161Z" fill="#FF9838"/>
<path d="M19.5 33.1723C27.9462 33.1723 33.4103 24.5848 29.9552 18.7309C27.0401 13.7925 19.4997 13.935 19.4997 13.935C19.4997 13.935 11.9599 13.7925 9.04481 18.7309C5.5897 24.5848 11.0538 33.1723 19.5 33.1723Z" fill="#FFAA5C"/>
<path d="M30.7128 29.298C30.4361 28.9487 30.1778 28.6639 29.9633 28.4741C29.7627 28.2968 29.5182 28.1629 29.2462 28.0635C28.4032 29.3066 27.2845 30.4162 25.9485 31.2817C26.7123 31.2255 27.4919 31.2871 28.1494 31.5832C28.2396 31.6236 28.3271 31.6715 28.4128 31.7257C29.2893 31.0009 30.0618 30.182 30.7128 29.298V29.298Z" fill="#FF8709"/>
<path d="M30.9526 23.5793C30.8112 24.8453 30.3911 26.1048 29.7341 27.2751C30.4807 27.0713 31.2921 26.9529 32.036 27.0618C32.5641 25.9174 32.9045 24.7177 33.0304 23.5141C32.3793 23.3978 31.628 23.4591 30.9526 23.5793V23.5793Z" fill="#FF8709"/>
<path d="M31.8444 17.8592C31.7518 17.7021 31.6542 17.5501 31.5539 17.4016C30.453 17.6703 29.5378 18.0991 29.5378 18.0991C29.5378 18.0994 29.5375 18.0994 29.5375 18.0994C29.6848 18.3002 29.8246 18.5103 29.9549 18.7308C30.398 19.4815 30.6931 20.2768 30.8556 21.0936C31.5397 20.8829 32.2663 20.76 32.9438 20.8407C32.7617 19.8094 32.4023 18.8042 31.8444 17.8592V17.8592Z" fill="#FF8709"/>
<path d="M29.5383 18.0992L30.4354 16.0512C29.7115 15.3288 28.8909 14.7414 28.0318 14.2642L27.2621 16.0048C28.1143 16.5481 28.9016 17.234 29.5377 18.0995C29.538 18.0995 29.538 18.0995 29.5383 18.0992V18.0992Z" fill="#FF8709"/>
<path d="M8.28723 29.298C8.56395 28.9487 8.82222 28.6639 9.03675 28.4741C9.2373 28.2968 9.48188 28.1629 9.75384 28.0635C10.5968 29.3066 11.7156 30.4162 13.0515 31.2817C12.2877 31.2255 11.5082 31.2871 10.8503 31.5832C10.7604 31.6236 10.673 31.6715 10.5873 31.7257C9.71069 31.0009 8.93826 30.182 8.28723 29.298V29.298Z" fill="#FF8709"/>
<path d="M8.04743 23.5793C8.18846 24.8453 8.6089 26.1048 9.26588 27.2751C8.51933 27.0713 7.70793 26.9529 6.96406 27.0618C6.43591 25.9174 6.09552 24.7177 5.96936 23.5141C6.62069 23.3978 7.37199 23.4591 8.04743 23.5793Z" fill="#FF8709"/>
<path d="M7.15571 17.8592C7.24825 17.7021 7.34584 17.5501 7.44611 17.4016C8.54704 17.6703 9.46229 18.0991 9.46229 18.0991C9.46229 18.0994 9.46259 18.0994 9.46259 18.0994C9.315 18.3002 9.17546 18.5103 9.04513 18.7308C8.60208 19.4815 8.30692 20.2768 8.14446 21.0936C7.4604 20.8829 6.73379 20.76 6.05627 20.8407C6.23837 19.8094 6.59781 18.8042 7.15571 17.8592Z" fill="#FF8709"/>
<path d="M9.46168 18.0992L8.56458 16.0512C9.28851 15.3288 10.1091 14.7414 10.9682 14.2642L11.7379 16.0048C10.8857 16.5481 10.0984 17.234 9.46227 18.0995C9.46198 18.0995 9.46198 18.0995 9.46168 18.0992Z" fill="#FF8709"/>
<path d="M19.5 31.0522C13.2744 31.0522 8.66989 26.3867 8.062 21.5894C7.34432 27.0267 12.3547 33.1722 19.5 33.1722C26.6453 33.1722 31.6554 27.0267 30.938 21.5894C30.3301 26.3867 25.7256 31.0522 19.5 31.0522V31.0522Z" fill="#FF9838"/>
<path d="M15.1344 14.5339C14.9416 13.5392 14.1811 12.8786 13.4027 13.0292C12.6246 13.18 12.1661 14.0777 12.3589 15.0724C12.4431 15.5062 12.6433 15.8987 12.9224 16.1769C13.1974 16.451 13.5336 16.5985 13.8713 16.5985C13.9448 16.5985 14.018 16.5914 14.0909 16.5774C14.4991 16.4983 14.8395 16.2037 15.0249 15.769C15.1799 15.4066 15.2186 14.9677 15.1344 14.5339Z" fill="#433F43"/>
<path d="M25.598 13.0293C24.8193 12.8782 24.0591 13.5393 23.866 14.534C23.6729 15.529 24.1314 16.4264 24.9095 16.5776C24.9838 16.5918 25.0582 16.599 25.1317 16.599C25.828 16.599 26.4668 15.972 26.6415 15.0726C26.8346 14.0779 26.3761 13.1802 25.598 13.0293V13.0293Z" fill="#433F43"/>
<path d="M22.2009 17.124C21.8796 17.174 21.6597 17.4748 21.7094 17.7962C21.7102 17.8009 21.7704 18.305 21.4255 18.7072C21.0836 19.1066 20.4177 19.3175 19.5001 19.3175C18.5911 19.3175 17.9287 19.1101 17.5842 18.7183C17.2283 18.313 17.289 17.8104 17.2908 17.7962C17.3408 17.4748 17.1206 17.1737 16.7992 17.1237C16.4776 17.074 16.1771 17.2939 16.1271 17.6153C16.1107 17.7203 15.9875 18.6647 16.6802 19.4734C17.261 20.1515 18.2096 20.4952 19.5001 20.4952C20.7905 20.4952 21.7391 20.1512 22.3199 19.4734C23.0126 18.6647 22.8894 17.7203 22.8734 17.6153C22.8234 17.2942 22.5223 17.0737 22.2009 17.124Z" fill="#F66700"/>
</g>
<defs>
<clipPath id="clip0_104_36">
<rect width="39" height="39" fill="white"/>
</clipPath>
</defs>
</svg>
