<svg width="59" height="61" viewBox="0 0 59 61" fill="none" xmlns="http://www.w3.org/2000/svg">
<path d="M31.2354 36.3766C20.4439 40.3759 10.0233 39.8156 6.7255 39.4998C6.51442 39.4897 6.33344 39.3521 6.26594 39.1504C6.19844 38.9488 6.25747 38.7224 6.41593 38.5752C8.7976 36.1546 16.5839 28.8466 27.3754 24.8472C38.1668 20.8479 48.5875 21.4082 51.8852 21.724C52.0963 21.7341 52.2773 21.8717 52.3448 22.0734C52.4123 22.275 52.3533 22.5015 52.1948 22.6486C49.8132 25.0693 42.0268 32.3772 31.2354 36.3766Z" fill="#F9C74F"/>
<path d="M49.3971 23.1459C48.7135 23.7429 47.9418 24.3997 47.0818 25.0892L46.5904 25.4793C46.3153 25.6943 46.0295 25.9178 45.7357 26.1442C45.4953 26.3282 45.2469 26.5152 44.9905 26.7053C44.6539 26.9521 44.3067 27.2074 43.9488 27.4576C43.7779 27.5797 43.6068 27.7019 43.4359 27.824C42.7601 28.296 42.0521 28.7664 41.32 29.2322C41.0902 29.3806 40.8525 29.532 40.6173 29.678C37.4599 31.6632 34.1196 33.3208 30.6488 34.6249C26.2541 36.2178 21.697 37.2552 17.0828 37.7127L17.0801 37.7046C17.1045 37.7037 17.1285 37.6964 17.1496 37.6834C18.522 37.2632 19.3327 35.8055 18.9617 34.4254C18.4287 33.1053 16.9286 32.504 15.6089 33.0815C15.5847 33.0854 15.5617 33.0954 15.5421 33.1108C15.5341 33.1138 15.5287 33.1113 15.526 33.1168C19.3971 30.424 23.5707 28.2225 27.9498 26.5636C31.4311 25.2907 35.0215 24.3798 38.6645 23.8452C38.9373 23.7984 39.2128 23.7596 39.4776 23.7292C40.3335 23.6065 41.1627 23.5117 41.9652 23.4313C42.1711 23.4138 42.3852 23.3933 42.5858 23.3731C43.0164 23.3402 43.4338 23.3076 43.843 23.2779L44.7579 23.2237C45.1164 23.2039 45.4722 23.1896 45.8146 23.1757C46.0233 23.1663 46.2293 23.1622 46.4353 23.1582C47.5162 23.1286 48.5088 23.1315 49.3971 23.1459Z" fill="#D5BE87"/>
<path d="M34.9005 32.7326L34.8978 32.7381C33.8107 33.3541 32.6781 33.8798 31.5114 34.3097C30.7049 34.609 29.8837 34.862 29.0517 35.0675L30.3023 33.2023C30.5174 32.8759 30.5719 32.4707 30.4497 32.1077L30.2584 31.5365L30.253 31.5204L29.4854 29.2275L29.2941 28.6563C29.1732 28.2929 28.8893 28.013 28.5273 27.9006L26.4416 27.2718C28.3295 26.3224 30.3291 25.6361 32.3847 25.232L32.3901 25.2345C33.55 25.6787 34.4414 26.6262 34.8253 27.8228L35.2563 29.1101C35.6699 30.2956 35.5397 31.6216 34.9005 32.7326Z" fill="#E6E7E8"/>
<path d="M35.4118 31.3494C33.3163 32.2526 30.0248 33.5707 29.1773 33.8802C29.1008 33.909 29.0169 33.9058 28.9445 33.8716C28.875 33.841 28.8224 33.7817 28.7996 33.7082C28.7716 33.6355 28.7742 33.5534 28.8067 33.4809C28.8394 33.4082 28.8993 33.3513 28.9727 33.323C29.8549 32.9961 33.3041 31.6105 35.4852 30.6665C35.4842 30.8954 35.4596 31.1242 35.4118 31.3494Z" fill="#BDC3C7"/>
<path d="M34.0253 26.3875C31.7634 27.0901 28.2495 28.2555 27.3674 28.5824C27.2932 28.6088 27.2127 28.6039 27.144 28.5688C27.0754 28.5337 27.0246 28.4715 27.0031 28.3963C26.977 28.3241 26.9827 28.2432 27.0186 28.1735C27.0546 28.099 27.1181 28.0413 27.1949 28.0132C28.0316 27.6986 31.361 26.5881 33.516 25.916C33.6863 26.0526 33.8484 26.1995 34.0013 26.3557L34.0253 26.3875Z" fill="#BDC3C7"/>
<path d="M32.6426 28.0605C32.6174 27.9851 32.5633 27.9238 32.4923 27.8902C32.4212 27.8565 32.3391 27.8533 32.2639 27.8812L28.1969 29.3737C28.0946 29.4104 28.018 29.4995 27.9963 29.6069C27.9746 29.7143 28.0112 29.8235 28.0921 29.893C28.173 29.9624 28.2857 29.9813 28.3873 29.9424L32.4543 28.4499C32.5295 28.4221 32.5916 28.3654 32.6269 28.2923C32.6623 28.2194 32.6679 28.136 32.6426 28.0605Z" fill="#BDC3C7"/>
<path d="M33.4136 30.3642C33.3884 30.2888 33.3343 30.2275 33.2633 30.1939C33.1922 30.1602 33.1101 30.157 33.0349 30.1849L28.9684 31.6776C28.8661 31.7144 28.7894 31.8034 28.7678 31.9108C28.7461 32.0183 28.7827 32.1275 28.8636 32.1969C28.9445 32.2664 29.0572 32.2852 29.1588 32.2464L33.2253 30.7536C33.3005 30.7258 33.3626 30.6691 33.3979 30.596C33.4333 30.5231 33.4389 30.4396 33.4136 30.3642Z" fill="#BDC3C7"/>
<path d="M17.149 37.6835C17.1278 37.6965 17.1039 37.7038 17.0795 37.7047L17.0822 37.7128C16.6382 37.7598 16.2048 37.7983 15.7795 37.8338C15.5735 37.8513 15.3702 37.8634 15.1643 37.881C14.7764 37.9072 14.3938 37.9359 14.0166 37.9536C13.808 37.9631 13.6046 37.9751 13.396 37.9846C11.8336 38.0572 10.421 38.0652 9.20086 38.0426C10.1381 37.2205 11.2437 36.2953 12.5044 35.3216C12.6646 35.1944 12.8329 35.0642 13.0065 34.9365C13.311 34.7016 13.6262 34.4718 13.944 34.2363C14.115 34.1142 14.2806 33.9895 14.4515 33.8674C14.8015 33.6201 15.1594 33.3699 15.5254 33.1167C15.5281 33.1112 15.5334 33.1137 15.5415 33.1108C15.5611 33.0954 15.5841 33.0853 15.6083 33.0815C16.928 32.504 18.4281 33.1052 18.961 34.4253C19.3321 35.8057 18.5214 37.2633 17.149 37.6835Z" fill="#BA9439"/>
<path d="M24.5239 35.6107C22.5064 35.5354 21.0656 34.9209 20.6858 33.7865C20.306 32.6521 21.0627 31.2232 22.5899 29.8342L22.5926 29.8423C22.2629 31.9942 22.9824 34.1431 24.5212 35.6026L24.5239 35.6107Z" fill="#937224"/>
<path d="M27.9239 35.3183C26.8011 35.5433 25.6608 35.6413 24.524 35.6107L24.5213 35.6026C22.9825 34.1432 22.263 31.9943 22.5928 29.8423L22.5901 29.8342C23.4576 29.0608 24.4046 28.3853 25.4136 27.8202C24.4501 28.6763 23.899 29.911 23.9095 31.1901C23.9245 32.0966 24.2161 32.9678 24.7445 33.6841L24.7498 33.6867C25.5019 34.6893 26.665 35.2872 27.9239 35.3183Z" fill="#BA9439"/>
<path d="M35.6228 32.3024C36.665 31.3291 37.0774 29.8501 36.6818 28.5051L36.2967 27.3546C35.8038 26.0456 34.6013 25.1651 33.2094 25.0939C36.5313 24.6089 39.1091 25.1864 39.6371 26.7633C40.1649 28.3401 38.5002 30.4899 35.6228 32.3024Z" fill="#937224"/>
<path d="M35.6224 32.3021C35.6144 32.3051 35.6144 32.3051 35.6117 32.3106C35.3846 32.4536 35.1441 32.5969 34.901 32.7323C35.1553 32.3057 35.3287 31.8364 35.4115 31.3493C35.4593 31.1242 35.4838 30.8954 35.485 30.6665C35.5019 30.1351 35.4246 29.6077 35.2567 29.1097L34.8258 27.8224C34.6509 27.295 34.3794 26.8083 34.0253 26.3872L34.0011 26.3555C33.8482 26.1993 33.6861 26.0525 33.5158 25.9159C33.1745 25.637 32.7959 25.4076 32.3906 25.2341C32.6607 25.1793 32.9334 25.1324 33.1956 25.094C33.2009 25.0966 33.2009 25.0966 33.2089 25.0937C34.6008 25.1649 35.8033 26.0454 36.2962 27.3544L36.6814 28.5048C36.8507 29.0148 36.8889 29.5637 36.7919 30.1007C36.7492 30.3559 36.6789 30.6064 36.5822 30.8476C36.3634 31.3917 36.0365 31.8871 35.6224 32.3021Z" fill="#BA9439"/>
<path d="M30.3025 33.2021L29.0519 35.0674C28.6749 35.1664 28.3005 35.2464 27.9368 35.3179C27.9314 35.3154 27.9287 35.3209 27.9234 35.3183C26.1885 35.2741 24.6871 34.1608 24.1339 32.5085C23.5807 30.8562 24.0875 28.9987 25.413 27.8202C25.4157 27.8147 25.421 27.8172 25.4237 27.8117L25.4291 27.8142C25.7551 27.6301 26.0891 27.443 26.4418 27.2715L28.5275 27.9003C28.8894 28.0129 29.1734 28.2926 29.2943 28.6561L29.4856 29.2273L30.2532 31.5201L30.2586 31.5363L30.4499 32.1074C30.5722 32.4706 30.5176 32.8757 30.3025 33.2021Z" fill="#937224"/>
<path d="M46.5901 25.4794L46.0031 25.0051L45.7355 26.1443C45.4951 26.3283 45.2467 26.5153 44.9903 26.7053L45.4832 24.5964L43.8428 23.2781L44.7577 23.2239L45.6395 23.9326L45.8144 23.1759C46.0231 23.1664 46.2291 23.1624 46.4351 23.1584L46.1569 24.3468L47.0816 25.0893L46.5901 25.4794Z" fill="#937224"/>
<path d="M43.4359 27.8242L41.9 26.5486L41.32 29.2324C41.0902 29.3809 40.8525 29.5323 40.6173 29.6782L41.3853 26.1154L38.6645 23.8455C38.9373 23.7987 39.2128 23.7598 39.4777 23.7295L41.5283 25.4384L41.9652 23.4316C42.1712 23.4141 42.3852 23.3936 42.5858 23.3734L42.043 25.8716L43.9488 27.4579C43.7778 27.5799 43.6068 27.7021 43.4359 27.8242Z" fill="#937224"/>
<path d="M30.0696 32.8952L28.1503 33.6111C27.5251 33.8443 26.8586 33.9255 26.2057 33.8479L24.7498 33.6866L24.7444 33.684C24.2161 32.9678 23.9245 32.0966 23.9094 31.19L24.9504 30.0988C25.413 29.6078 25.9807 29.2316 26.6068 29.0011L28.5289 28.2933C28.6809 28.2354 28.8477 28.2412 28.9918 28.3094C29.1359 28.3776 29.2451 28.5025 29.2949 28.6561L29.4862 29.2272C29.5388 29.3797 29.528 29.549 29.4564 29.6972C29.3848 29.8454 29.2583 29.9599 29.1053 30.015L28.5333 30.2315C28.3284 30.3075 28.1758 30.4873 28.133 30.7032C28.0901 30.9191 28.1636 31.1384 28.3255 31.2785C28.4876 31.4185 28.7136 31.458 28.9184 31.3821L29.4932 31.1736C29.6452 31.1157 29.812 31.1215 29.9561 31.1897C30.1002 31.2579 30.2094 31.3828 30.2592 31.5363L30.4505 32.1075C30.5031 32.2599 30.4924 32.4293 30.4208 32.5775C30.3492 32.7256 30.2226 32.8401 30.0696 32.8952Z" fill="#D5BE87"/>
<path d="M15.7799 37.8338C15.5739 37.8513 15.3706 37.8634 15.1647 37.8809L13.9445 34.2365C14.1155 34.1144 14.2811 33.9897 14.452 33.8675L15.7799 37.8338Z" fill="#937224"/>
<path d="M14.0173 37.9534C13.8087 37.9629 13.6053 37.975 13.3967 37.9845L12.5051 35.3215C12.6654 35.1943 12.8336 35.0641 13.0072 34.9364L14.0173 37.9534Z" fill="#937224"/>
<path d="M7.61509 24.2732L9.42938 24.324C9.77198 24.3336 10.0704 24.5773 10.1702 24.9289L10.5319 26.2022C10.6318 26.5539 10.5107 26.9348 10.2313 27.1477L8.75161 28.275C8.68186 28.3281 8.60452 28.3689 8.52264 28.3956L6.36126 29.1021C6.15931 29.1681 5.94103 29.1454 5.75471 29.0389C5.56831 28.9323 5.42905 28.7507 5.36756 28.534L4.67131 26.0826C4.60977 25.8659 4.63096 25.6318 4.73026 25.4319C4.82959 25.2319 4.99884 25.0825 5.20087 25.0165L7.36225 24.31C7.44418 24.2832 7.52949 24.2708 7.61509 24.2732Z" fill="#805333"/>
<path d="M39.105 16.149C39.072 16.2159 39.0155 16.2659 38.9481 16.2879L10.3134 25.6913C10.1736 25.7356 10.0267 25.6508 9.98404 25.5013C9.94139 25.3518 10.0189 25.1934 10.1578 25.1461L38.7925 15.7426C38.8953 15.7089 39.007 15.7449 39.0753 15.8339C39.1437 15.9228 39.1555 16.0472 39.105 16.149Z" fill="#CB8252"/>
<path d="M41.7151 17.0548L39.9005 17.0224C39.5578 17.0162 39.2573 16.7756 39.1542 16.4249L38.7814 15.1553C38.6785 14.8047 38.7962 14.4226 39.0737 14.2069L40.5434 13.0647C40.6127 13.0108 40.6897 12.9693 40.7713 12.9418L42.9264 12.2134C43.3458 12.0716 43.793 12.3215 43.925 12.7714L44.6428 15.2156C44.775 15.6656 44.5421 16.1453 44.1227 16.287L41.9676 17.0153C41.8859 17.0431 41.8007 17.0563 41.7151 17.0548Z" fill="#805333"/>
</svg>
