<svg width="62" height="70" viewBox="0 0 62 70" fill="none" xmlns="http://www.w3.org/2000/svg">
<path d="M53.5073 43.9446L14.2997 44.3985L32.6366 12.8556L37.9134 3.77856L41.4374 12.8556L53.5073 43.9446Z" fill="#434040"/>
<path d="M0.00183105 44.6347H44.0527L22.1426 0L0.00183105 44.6347Z" fill="#897C7C"/>
<path d="M27.1793 10.26C22.1054 13.8076 22.9472 10.897 17.412 9.56666L22.0832 0.435059L27.1793 10.26Z" fill="white"/>
<path d="M41.7457 13.6976C36.6718 25.5057 39.67 12.5167 31.8285 14.406L37.8249 4.72339L41.7457 13.6976Z" fill="white"/>
<g clip-path="url(#clip0_3_4896)">
<path d="M23.4052 18.0451L19.1437 23.2816L30.8014 36.304L32.921 34.1336L25.1674 18.2546C24.8255 17.5545 23.8945 17.444 23.4052 18.0451Z" fill="#45CAE0"/>
<path d="M23.4052 18.0451C23.8945 17.4439 24.8255 17.5546 25.1673 18.2546L32.9209 34.1336L31.5705 35.5164L22.9861 18.5601L23.4052 18.0451Z" fill="#1C8B9E"/>
<path d="M2.18699 24.3047V38.4744C1.8139 39.1093 1.44892 39.8321 1.12717 40.6448C-0.0545807 43.6294 -0.0909081 46.404 0.0673599 48.2412V49.3264H46.6981L58.9037 42.7483C59.3679 42.4923 59.2219 41.7748 58.6965 41.7298L47.7579 40.6445L32.0631 34.216C31.9298 34.1615 31.8088 34.0798 31.7073 33.9759L20.54 22.5407C20.3259 22.3215 20.0306 22.2065 19.7283 22.2248L3.18456 23.2212C2.62426 23.2552 2.18699 23.7301 2.18699 24.3047Z" fill="white"/>
<path d="M1.12691 40.6448C1.44865 39.8321 1.81363 39.1093 2.18672 38.4743V24.3048C2.18672 23.7302 2.62411 23.2552 3.18429 23.2216L12.1105 22.6838L27.6217 39.5596L47.7577 46.0708L59.142 42.4839C59.0989 42.5893 59.0208 42.6837 58.9034 42.7484L46.6979 49.3263H0.0670929V48.2411C-0.0911751 46.4039 -0.0548439 43.6293 1.12691 40.6448Z" fill="#45CAE0"/>
<path d="M20.4072 33.524C19.4294 33.524 18.6367 32.7123 18.6367 31.7111C18.6367 30.7099 19.4294 29.8982 20.4072 29.8982C21.3849 29.8982 22.1776 30.7099 22.1776 31.7111C22.1776 32.7123 21.3849 33.524 20.4072 33.524Z" fill="#1C8B9E"/>
<path d="M23.8697 37.409C22.8919 37.409 22.0992 36.5974 22.0992 35.5961C22.0992 34.5949 22.8919 33.7832 23.8697 33.7832C24.8475 33.7832 25.6401 34.5949 25.6401 35.5961C25.6401 36.5974 24.8475 37.409 23.8697 37.409Z" fill="#1C8B9E"/>
<path d="M27.5231 41.3821C26.5453 41.3821 25.7527 40.5705 25.7527 39.5692C25.7527 38.568 26.5453 37.7563 27.5231 37.7563C28.5009 37.7563 29.2936 38.568 29.2936 39.5692C29.2936 40.5705 28.5009 41.3821 27.5231 41.3821Z" fill="#1C8B9E"/>
<path d="M32.9205 43.1944C31.9427 43.1944 31.15 42.3827 31.15 41.3815C31.15 40.3803 31.9427 39.5686 32.9205 39.5686C33.8983 39.5686 34.6909 40.3803 34.6909 41.3815C34.6909 42.3827 33.8983 43.1944 32.9205 43.1944Z" fill="#1C8B9E"/>
<path d="M37.6895 44.764C36.7117 44.764 35.919 43.9523 35.919 42.9511C35.919 41.9499 36.7117 41.1382 37.6895 41.1382C38.6673 41.1382 39.46 41.9499 39.46 42.9511C39.46 43.9523 38.6673 44.764 37.6895 44.764Z" fill="#1C8B9E"/>
<path d="M42.4185 46.1571C41.4407 46.1571 40.648 45.3454 40.648 44.3441C40.648 43.3429 41.4407 42.5312 42.4185 42.5312C43.3963 42.5312 44.189 43.3429 44.189 44.3441C44.189 45.3454 43.3963 46.1571 42.4185 46.1571Z" fill="#1C8B9E"/>
<path d="M46.7678 47.5584C45.79 47.5584 44.9973 46.7468 44.9973 45.7455C44.9973 44.7443 45.79 43.9326 46.7678 43.9326C47.7455 43.9326 48.5382 44.7443 48.5382 45.7455C48.5382 46.7468 47.7455 47.5584 46.7678 47.5584Z" fill="#1C8B9E"/>
<path d="M23.8714 36.4953C24.0587 36.4953 24.248 36.4412 24.4161 36.328L31.7222 31.4116C32.1806 31.103 32.3083 30.4722 32.0067 30.0026C31.7052 29.5331 31.0891 29.4027 30.6307 29.7112L23.3247 34.6277C22.9787 34.8605 22.8076 35.3023 22.904 35.7147C23.01 36.1673 23.4171 36.4953 23.8714 36.4953Z" fill="#4E5058"/>
<path d="M27.6208 40.5781C27.875 40.5781 28.1295 40.4787 28.3235 40.2802L33.6234 34.8532C34.0114 34.4558 34.0114 33.8115 33.6234 33.4141C33.2352 33.0169 32.606 33.0169 32.218 33.4141L26.9181 38.8411C26.306 39.4679 26.7515 40.5781 27.6208 40.5781Z" fill="#4E5058"/>
<path d="M32.9191 42.2917C33.2365 42.2917 33.5484 42.1362 33.7408 41.8474L37.2509 36.5785C37.5602 36.1142 37.4434 35.4812 36.99 35.1646C36.5366 34.8475 35.9184 34.9674 35.6091 35.4317L32.0991 40.7007C31.6587 41.3613 32.1327 42.2917 32.9191 42.2917Z" fill="#4E5058"/>
<path d="M37.6883 43.9697C38.0541 43.9697 38.4059 43.7622 38.5795 43.4039L41.2295 37.9318C41.4733 37.4283 41.2722 36.8178 40.7806 36.568C40.289 36.3185 39.6927 36.5242 39.4487 37.0276L36.7987 42.4997C36.4778 43.1629 36.962 43.9697 37.6883 43.9697Z" fill="#4E5058"/>
<path d="M42.418 45.3629C42.8174 45.3629 43.1937 45.1148 43.3458 44.7104L45.263 39.6084C45.4601 39.084 45.2048 38.4951 44.6923 38.2933C44.18 38.0913 43.6052 38.3531 43.408 38.8777L41.4908 43.9797C41.2447 44.6344 41.7308 45.3629 42.418 45.3629Z" fill="#4E5058"/>
<path d="M46.7504 46.7634C47.2135 46.7634 47.6279 46.4303 47.7234 45.9475L48.7315 40.8467C48.8404 40.2957 48.4927 39.7589 47.9547 39.6475C47.4167 39.5365 46.8925 39.892 46.7836 40.4429L45.7755 45.5438C45.6525 46.1654 46.1312 46.7634 46.7504 46.7634Z" fill="#4E5058"/>
<path d="M20.4084 32.7278C20.579 32.7278 20.7518 32.683 20.9094 32.5883L29.6737 27.3337C30.1472 27.0496 30.3063 26.4264 30.0291 25.9416C29.7517 25.4567 29.143 25.2941 28.6696 25.5777L19.9053 30.8323C19.5371 31.0531 19.3445 31.5047 19.4374 31.9313C19.5375 32.3917 19.9478 32.7278 20.4084 32.7278Z" fill="#4E5058"/>
<path d="M11.1954 41.5263C11.7442 41.5263 12.189 41.071 12.189 40.5089C12.189 31.088 19.805 28.1318 19.8819 28.103C20.3974 27.9105 20.6628 27.3263 20.4745 26.7985C20.2864 26.2707 19.7164 25.9987 19.2004 26.1918C19.1072 26.2266 16.891 27.0707 14.6785 29.2552C12.6362 31.2717 10.2017 34.8611 10.2017 40.5088C10.2018 41.0708 10.6465 41.5263 11.1954 41.5263Z" fill="#4E5058"/>
<path d="M46.6982 48.2412L59.4156 41.73L61.8282 47.4942C62.2619 48.5303 61.8488 49.7339 60.8775 50.2642L46.932 57.8801C46.7785 57.9639 46.6072 58.0077 46.4332 58.0077H2.18689C1.01628 58.0077 0.0672684 57.036 0.0672684 55.8372V48.2408H46.6981V48.2412H46.6982Z" fill="#277DA1"/>
<path d="M2.18669 55.8373H46.698L59.659 48.7591C59.906 48.6243 60.008 48.3158 59.8917 48.0551L57.5079 42.7066L59.4153 41.73L61.7243 47.2468L61.82 47.4752C62.2551 48.5147 61.8468 49.7226 60.8771 50.2641L60.8764 50.2644L46.9315 57.8799C46.778 57.9638 46.6068 58.0075 46.4328 58.0075H2.18657C1.01583 58.0075 0.0669441 57.0359 0.0669441 55.8371V53.6667C0.0671883 54.8656 1.01608 55.8373 2.18669 55.8373Z" fill="#1C8B9E"/>
<path d="M59.4159 41.7298L48.818 47.1558L49.7129 41.6581C49.8055 41.0896 50.3159 40.6943 50.8754 40.7579L59.4159 41.7298Z" fill="#1C8B9E"/>
</g>
<defs>
<clipPath id="clip0_3_4896">
<rect width="62" height="63.4864" fill="white" transform="matrix(-1 0 0 1 62 6.08789)"/>
</clipPath>
</defs>
</svg>
